<?xml version="1.0" standalone="no"?><!DOCTYPE svg PUBLIC "-//W3C//DTD SVG 1.1//EN" "http://www.w3.org/Graphics/SVG/1.1/DTD/svg11.dtd"><svg t="1530673470924" class="icon" style="" viewBox="0 0 1024 1024" version="1.1" xmlns="http://www.w3.org/2000/svg" p-id="4879" xmlns:xlink="http://www.w3.org/1999/xlink" width="200" height="200"><defs><style type="text/css"></style></defs><path d="M512.757 956.066c-60.389 0-118.975-11.828-174.131-35.158-53.271-22.531-101.112-54.787-142.194-95.868-41.082-41.082-73.337-88.923-95.868-142.194-23.329-55.155-35.157-113.742-35.157-174.131s11.829-118.975 35.157-174.131c22.532-53.271 54.787-101.112 95.868-142.194s88.923-73.337 142.194-95.868c55.155-23.328 113.741-35.157 174.131-35.157s118.975 11.829 174.131 35.157c53.271 22.532 101.111 54.787 142.194 95.868 41.082 41.082 73.337 88.923 95.869 142.194 23.328 55.155 35.157 113.742 35.157 174.131s-11.828 118.976-35.157 174.131c-22.532 53.271-54.787 101.111-95.869 142.194-41.082 41.081-88.923 73.337-142.194 95.868-55.156 23.33-113.741 35.158-174.131 35.158z m0-882.868C272.612 73.198 77.24 268.57 77.24 508.715c0 240.145 195.372 435.517 435.517 435.517S948.274 748.86 948.274 508.715c0-240.145-195.372-435.517-435.517-435.517z" p-id="4880" fill="#ffffff"></path><path d="M678.21 737.473H345.759c-32.551 0-59.033-26.483-59.033-59.032V345.988c0-32.551 26.483-59.033 59.033-59.033H678.21c32.551 0 59.032 26.483 59.032 59.033V678.44c0.001 32.55-26.482 59.033-59.032 59.033z m-332.451-441.33c-27.485 0-49.846 22.361-49.846 49.846v332.452c0 27.485 22.361 49.845 49.846 49.845H678.21c27.485 0 49.845-22.361 49.845-49.845V345.988c0-27.485-22.361-49.846-49.845-49.846H345.759v0.001z" p-id="4881" fill="#ffffff"></path><path d="M636.643 439.809h24.736v294.114h-24.736V439.809z m-278.366-63.734h24.736v357.848h-24.736V376.075z m69.592 110.243h24.736v247.605h-24.736V486.318z m69.591-8.754h24.736v256.36H497.46v-256.36z m69.592 34.227h24.736v222.132h-24.736V511.791z" p-id="4882" fill="#ffffff"></path></svg>