<?xml version="1.0" standalone="no"?><!DOCTYPE svg PUBLIC "-//W3C//DTD SVG 1.1//EN" "http://www.w3.org/Graphics/SVG/1.1/DTD/svg11.dtd"><svg t="1530673370941" class="icon" style="" viewBox="0 0 1024 1024" version="1.1" xmlns="http://www.w3.org/2000/svg" p-id="3000" xmlns:xlink="http://www.w3.org/1999/xlink" width="200" height="200"><defs><style type="text/css"></style></defs><path d="M512 42.666667A469.333333 469.333333 0 0 0 42.666667 512 469.333333 469.333333 0 1 0 512 42.666667z m0 878.506666A409.173333 409.173333 0 0 1 102.826667 512a409.173333 409.173333 0 0 1 818.346666 0A409.173333 409.173333 0 0 1 512 921.173333z m277.333333-384a38.4 38.4 0 0 0-38.4-38.4h-268.8V230.4a38.4 38.4 0 0 0-76.8 0v307.2a38.4 38.4 0 0 0 38.4 38.4h307.2a38.4 38.4 0 0 0 38.4-38.4z" p-id="3001" fill="#ffffff"></path></svg>